# xmcd CD database file
#
# Track frame offsets:
#	150
#	17952
#	32586
#	50376
#	64867
#	78927
#	94922
#	113511
#	125112
#	140806
#	158941
#	174882
#
# Disc length: 2502 seconds
#
# Revision: 7
# Processed by: cddbd v1.5.2PL0 Copyright (c) Steve Scherf et al.
# Submitted via: CDex 1.51
#
DISCID=9d09c40c
DTITLE=MILIONÁRIO E JOSÉ RICO - 1997-AS GARGANTAS DE OURO - VOL. 23
DYEAR=1997
DGENRE=Sertanejo
TTITLE0=MEU MARTÍRIO
TTITLE1=BONECA COBIÇADA
TTITLE2=O ÚLTIMO JULGAMENTO
TTITLE3=NO COLO DA NOITE
TTITLE4=POMBINHA BRANCA
TTITLE5=ÉBRIO DE AMOR
TTITLE6=CAMINHEIRO
TTITLE7=SESSENTA DIAS APAIXONADO
TTITLE8=SE EU NÃO PUDER TE ESQUECER
TTITLE9=O VAI E VEM DO CARREIRO
TTITLE10=SERESTEIRO DA LUA
TTITLE11=PÉ DA LETRA
EXTD=YEAR: 1997
EXTT0=
EXTT1=
EXTT2=
EXTT3=
EXTT4=
EXTT5=
EXTT6=
EXTT7=
EXTT8=
EXTT9=
EXTT10=
EXTT11=
PLAYORDER=
